HIERARCHY
ROOT Hips
{
	OFFSET 0.000000 0.000000 0.000000
	CHANNELS 6 Xposition Yposition Zposition Xrotation Yrotation Zrotation
	JOINT LeftUpLeg_virtual
	{
		OFFSET 0.000000 0.000000 0.000000
		CHANNELS 3 Xrotation Yrotation Zrotation
		JOINT LeftUpLeg
		{
			OFFSET 15.427100 -6.655098 0.678600
			CHANNELS 3 Xrotation Yrotation Zrotation
			JOINT LeftLeg
			{
				OFFSET 4.081073 -39.591068 13.024000
				CHANNELS 3 Xrotation Yrotation Zrotation
				JOINT LeftFoot
				{
					OFFSET -4.081074 -37.707932 -15.979700
					CHANNELS 3 Xrotation Yrotation Zrotation
					JOINT LeftToeBase
					{
						OFFSET 5.346399 -15.068900 20.645000
						CHANNELS 3 Xrotation Yrotation Zrotation
						JOINT LeftToe_End
						{
							OFFSET 2.754700 0.931300 11.300900
							CHANNELS 3 Xrotation Yrotation Zrotation
							End Site
							{
								OFFSET 0 0 0
							}
						}
					}
				}
			}
		}
	}
	JOINT RightUpLeg_virtual
	{
		OFFSET 0.000000 0.000000 0.000000
		CHANNELS 3 Xrotation Yrotation Zrotation
		JOINT RightUpLeg
		{
			OFFSET -15.569500 -6.655098 0.678600
			CHANNELS 3 Xrotation Yrotation Zrotation
			JOINT RightLeg
			{
				OFFSET -4.081825 -39.591045 13.023800
				CHANNELS 3 Xrotation Yrotation Zrotation
				JOINT RightFoot
				{
					OFFSET 4.081824 -37.707954 -15.979600
					CHANNELS 3 Xrotation Yrotation Zrotation
					JOINT RightToeBase
					{
						OFFSET -5.346400 -15.068900 20.645000
						CHANNELS 3 Xrotation Yrotation Zrotation
						JOINT RightToe_End
						{
							OFFSET -2.754700 0.931300 11.300900
							CHANNELS 3 Xrotation Yrotation Zrotation
							End Site
							{
								OFFSET 0 0 0
							}
						}
					}
				}
			}
		}
	}
	JOINT Spine_virtual
	{
		OFFSET 0.000000 0.000000 0.000000
		CHANNELS 3 Xrotation Yrotation Zrotation
		JOINT Spine
		{
			OFFSET -0.279200 12.230698 -2.892100
			CHANNELS 3 Xrotation Yrotation Zrotation
			JOINT Spine1
			{
				OFFSET -0.232667 10.192268 -1.242267
				CHANNELS 3 Xrotation Yrotation Zrotation
				JOINT Spine1_split
				{
					OFFSET -0.232667 10.192268 -1.242267
					CHANNELS 3 Xrotation Yrotation Zrotation
					JOINT Spine2
					{
						OFFSET -0.232667 10.192268 -1.242267
						CHANNELS 3 Xrotation Yrotation Zrotation
						JOINT Neck_virtual
						{
							OFFSET 0.000000 0.000000 0.000000
							CHANNELS 3 Xrotation Yrotation Zrotation
							JOINT Neck
							{
								OFFSET -0.418800 17.814194 8.416900
								CHANNELS 3 Xrotation Yrotation Zrotation
								JOINT Head
								{
									OFFSET 0.000000 7.031097 3.806800
									CHANNELS 3 Xrotation Yrotation Zrotation
									JOINT HeadTop_End
									{
										OFFSET 0.000000 24.646606 12.978600
										CHANNELS 3 Xrotation Yrotation Zrotation
										End Site
										{
											OFFSET 0 0 0
										}
									}
								}
							}
						}
						JOINT LeftShoulder_virtual
						{
							OFFSET 0.000000 0.000000 0.000000
							CHANNELS 3 Xrotation Yrotation Zrotation
							JOINT LeftShoulder
							{
								OFFSET 8.476499 7.247704 -3.868750
								CHANNELS 3 Xrotation Yrotation Zrotation
								JOINT LeftShoulder_split
								{
									OFFSET 8.476499 7.247704 -3.868750
									CHANNELS 3 Xrotation Yrotation Zrotation
									JOINT LeftArm
									{
										OFFSET 9.308998 -2.777710 0.208600
										CHANNELS 3 Xrotation Yrotation Zrotation
										JOINT LeftForeArm
										{
											OFFSET 29.972298 0.000000 0.000000
											CHANNELS 3 Xrotation Yrotation Zrotation
											JOINT LeftHand
											{
												OFFSET 26.026505 0.000000 0.000000
												CHANNELS 3 Xrotation Yrotation Zrotation
												End Site
												{
													OFFSET 0 0 0
												}
											}
										}
									}
								}
							}
						}
						JOINT RightShoulder_virtual
						{
							OFFSET 0.000000 0.000000 0.000000
							CHANNELS 3 Xrotation Yrotation Zrotation
							JOINT RightShoulder
							{
								OFFSET -7.570500 7.247704 -3.868750
								CHANNELS 3 Xrotation Yrotation Zrotation
								JOINT RightShoulder_split
								{
									OFFSET -7.570500 7.247704 -3.868750
									CHANNELS 3 Xrotation Yrotation Zrotation
									JOINT RightArm
									{
										OFFSET -9.308998 -2.777710 0.208500
										CHANNELS 3 Xrotation Yrotation Zrotation
										JOINT RightForeArm
										{
											OFFSET -29.972300 0.000000 0.000000
											CHANNELS 3 Xrotation Yrotation Zrotation
											JOINT RightHand
											{
												OFFSET -26.026505 0.000000 0.000000
												CHANNELS 3 Xrotation Yrotation Zrotation
												End Site
												{
													OFFSET 0 0 0
												}
											}
										}
									}
								}
							}
						}
					}
				}
			}
		}
	}
}
MOTION
Frames: 8
Frame Time: 0.03333333
-1.868499 90.725922 -12.346344 0.000000 0.000000 0.000000 5.831773 -11.988680 3.452855 -19.580942 24.443039 12.062918 25.286170 11.183072 -1.551620 -6.052051 4.500579 -5.391743 2.797144 -3.451837 0.504326 0.000000 0.000000 0.000000 6.813937 -14.882605 4.303969 -16.736076 -11.629585 -5.347861 23.698986 10.836821 0.259558 -15.479876 -15.076111 8.625053 5.442039 3.173414 -12.975200 0.000000 0.000000 0.000000 7.539447 -9.275244 2.882449 0.696306 -1.299528 0.585896 5.191049 -3.770748 2.980972 -0.040227 -0.384814 0.042066 0.000000 0.000000 0.000000 9.249006 -0.884654 2.885115 -10.932222 0.978337 -5.464744 -26.464145 -0.781781 24.727721 0.000000 0.000000 0.000000 6.613373 -2.156379 2.172165 0.298263 -17.007137 5.716876 0.592480 0.594036 0.336275 -54.754659 15.781529 -39.358661 56.057780 -72.301220 55.128639 0.000000 0.000000 0.000000 8.823711 -1.678598 3.206141 2.167769 -0.294386 3.148641 -9.745709 -8.272713 0.034245 -15.434839 8.431175 61.217100 10.060707 8.825119 2.449998 0.000000 0.000000 0.000000 
-1.377958 90.466530 -11.185520 0.000000 0.000000 0.000000 6.016827 -11.353611 3.305276 -20.466740 25.297815 12.614170 25.066364 10.813018 -1.466140 -5.970830 3.350667 -5.891050 1.531375 -3.354936 1.010694 0.000000 0.000000 0.000000 7.328118 -13.840741 4.199967 -15.485413 -10.736543 -5.348688 22.843204 10.497689 0.093183 -15.439979 -15.112195 9.826067 2.345227 3.483035 -12.916030 0.000000 0.000000 0.000000 7.698830 -7.512734 2.603470 0.530058 -0.972483 0.895436 5.748791 -3.418616 3.057514 -0.101905 -0.220829 0.031327 0.000000 0.000000 0.000000 9.342398 -0.567692 2.817369 -10.079702 0.792576 -5.408311 -27.156632 -1.814543 25.131881 0.000000 0.000000 0.000000 6.872484 -1.892311 2.015461 -0.166166 -15.898987 5.386853 -1.352125 2.267085 -0.544911 -54.049780 17.774748 -37.943077 57.602687 -72.810725 55.999594 0.000000 0.000000 0.000000 8.988935 -1.370053 3.158051 2.153648 0.091704 3.453008 -10.146296 -7.593798 -0.290406 -14.157824 8.495931 60.330480 10.109416 8.956210 2.662116 0.000000 0.000000 0.000000 
-0.837542 90.228317 -10.269054 0.000000 0.000000 0.000000 6.233759 -8.269823 2.800737 -22.831461 24.779682 13.432693 25.610510 9.951634 -1.523407 -4.870200 1.147593 -6.140232 0.690101 -3.170752 1.625275 0.000000 0.000000 0.000000 7.766909 -9.565895 3.419218 -12.159290 -10.698600 -5.368919 21.180200 9.353757 0.306400 -17.559458 -15.467561 9.589998 2.025329 3.713798 -11.979975 0.000000 0.000000 0.000000 7.740968 -4.001680 2.048574 0.182037 -0.433521 1.359376 6.285918 -2.550131 3.012640 -0.160154 -0.122090 0.033287 0.000000 0.000000 0.000000 9.450804 0.219500 2.731283 -9.621962 0.265261 -5.198874 -27.299225 -6.032487 24.245095 0.000000 0.000000 0.000000 6.920672 -1.182800 1.792657 -0.774902 -13.623895 4.935037 -2.439224 2.855505 -0.670856 -56.177777 21.275252 -35.684590 64.068076 -76.038461 61.868311 0.000000 0.000000 0.000000 8.902245 -0.623413 3.071012 2.238867 1.345430 4.066007 -10.501718 -6.764959 -0.506774 -12.564500 7.084291 59.492607 10.523024 9.168309 2.484435 0.000000 0.000000 0.000000 
-0.018640 90.079071 -9.871914 0.000000 0.000000 0.000000 6.553126 -2.830373 1.998686 -25.684998 23.162391 13.946742 26.282206 9.001403 -1.631671 -3.518824 -1.696754 -5.788397 0.807158 -2.914012 2.149474 0.000000 0.000000 0.000000 8.045896 -3.086685 2.231230 -7.807938 -11.764645 -5.623660 19.256631 7.710449 0.962359 -20.308077 -15.951237 9.082223 3.074935 4.060002 -10.475128 0.000000 0.000000 0.000000 7.752033 0.872432 1.335327 -0.434134 0.275892 1.916449 6.689947 -1.218729 2.741349 -0.167856 -0.194310 -0.004638 0.000000 0.000000 0.000000 9.506759 1.466355 2.519113 -9.648645 -0.647786 -4.634205 -27.045210 -13.508941 22.242180 0.000000 0.000000 0.000000 6.843372 -0.022706 1.432412 -1.389003 -10.573837 4.421168 -2.096623 2.310981 0.233420 -60.831987 24.517818 -32.849081 76.942696 -80.411038 74.236568 0.000000 0.000000 0.000000 8.649126 0.537507 2.825408 2.365027 3.241720 4.937454 -10.938883 -6.243714 -0.284184 -11.030615 4.746745 58.717183 11.248061 9.034752 1.924543 0.000000 0.000000 0.000000 
1.024214 90.211197 -9.477058 0.000000 0.000000 0.000000 6.989358 4.278069 1.003243 -28.130161 20.696938 13.534346 26.195142 8.273889 -1.683073 -2.531940 -5.012858 -4.972914 1.445831 -2.625770 2.514526 0.000000 0.000000 0.000000 8.186291 4.399236 0.956745 -3.273749 -13.974938 -6.079882 17.481866 6.231551 2.060509 -22.255704 -16.301151 9.759311 2.692264 4.739062 -8.661108 0.000000 0.000000 0.000000 7.759063 6.604744 0.512284 -1.276436 1.126117 2.517244 6.900431 0.519092 2.173657 -0.080676 -0.296205 0.026501 0.000000 0.000000 0.000000 9.507773 3.100200 2.080566 -10.233220 -2.055944 -3.371675 -26.850741 -23.649349 19.207405 0.000000 0.000000 0.000000 6.703875 1.551821 0.860133 -1.932620 -6.990877 3.632156 -1.018405 1.437432 1.801284 -66.991049 26.349693 -29.981348 99.435315 -84.350036 96.316234 0.000000 0.000000 0.000000 8.321063 2.083990 2.341671 2.448246 5.466614 5.974717 -11.433464 -5.707375 0.727121 -9.695027 2.190551 57.959653 12.172547 8.499027 0.994711 0.000000 0.000000 0.000000 
2.250221 90.724533 -9.016891 0.000000 0.000000 0.000000 7.607843 12.080839 -0.010390 -29.961789 17.477088 12.357183 25.214985 7.354218 -1.624769 -1.395607 -8.850322 -4.669078 1.697054 -2.362190 2.878501 0.000000 0.000000 0.000000 8.239788 11.898827 -0.173900 0.882702 -16.842386 -6.476594 15.851257 5.277279 3.293854 -23.103772 -16.354044 11.541378 0.092506 5.627098 -6.675433 0.000000 0.000000 0.000000 7.764867 12.375944 -0.364668 -2.210993 2.036218 3.136211 6.936932 2.609855 1.369000 0.085779 -0.285565 0.092553 0.000000 0.000000 0.000000 9.472572 5.047204 1.395407 -11.121483 -4.047600 -1.132115 -26.809247 -35.618941 15.341440 0.000000 0.000000 0.000000 6.545802 3.481726 0.109595 -2.348627 -3.170275 2.568708 0.604853 0.442195 3.340903 -72.998535 26.040178 -27.895964 145.056894 -86.770682 141.698681 0.000000 0.000000 0.000000 7.956791 3.945129 1.614887 2.420662 7.641495 7.150495 -12.008161 -4.920208 1.825990 -8.588973 0.140826 57.177805 13.168982 7.715230 -0.216318 0.000000 0.000000 0.000000 
3.631272 91.440201 -8.473194 0.000000 0.000000 0.000000 8.180399 19.676508 -1.056324 -31.315587 13.727850 10.676590 23.687057 6.148820 -1.582671 0.367822 -13.073978 -5.135068 1.099967 -2.148903 3.228904 0.000000 0.000000 0.000000 8.104422 18.800620 -1.085467 4.483251 -19.815371 -6.575208 14.811936 4.545753 4.524157 -23.285373 -16.301396 12.969522 -2.706783 6.332267 -4.533480 0.000000 0.000000 0.000000 7.713709 18.254196 -1.309928 -3.141397 2.838439 3.714818 6.807544 4.936980 0.475851 0.275056 -0.220920 0.134026 0.000000 0.000000 0.000000 9.312550 7.188427 0.530597 -12.030619 -6.515659 2.119928 -27.030931 -48.380740 10.785343 0.000000 0.000000 0.000000 6.422975 5.654095 -0.680007 -2.617032 0.823422 1.446104 2.575491 -1.011551 4.386520 -77.678252 23.925355 -27.126711 -154.623926 -86.818507 -157.984092 0.000000 0.000000 0.000000 7.677942 6.001587 0.705630 2.343025 9.454176 8.313416 -12.910897 -3.780450 2.730345 -7.443318 -0.987533 56.372720 14.105182 7.118640 -1.607092 0.000000 0.000000 0.000000 
5.065829 92.142281 -7.794434 0.000000 0.000000 0.000000 8.355488 26.247915 -2.005416 -32.236239 9.424508 8.700162 22.293801 4.877627 -1.528948 2.760870 -16.930895 -6.085979 -0.103756 -1.965865 3.411384 0.000000 0.000000 0.000000 7.661058 24.845566 -1.815478 7.127022 -22.404540 -6.384483 14.708838 3.831470 5.775534 -22.453777 -16.311238 13.380417 -4.787223 6.628394 -2.247056 0.000000 0.000000 0.000000 7.460236 24.289976 -2.327133 -4.010363 3.418142 4.185185 6.553319 7.320705 -0.321102 0.367576 -0.157376 0.175145 0.000000 0.000000 0.000000 9.064527 9.372669 -0.349440 -12.586596 -9.188913 6.163159 -27.791435 -60.670515 5.480835 0.000000 0.000000 0.000000 6.320461 7.937820 -1.328737 -2.780377 5.072201 0.549362 4.388633 -2.646485 4.858586 -80.651229 20.984081 -27.586688 -113.869383 -85.683617 -116.935899 0.000000 0.000000 0.000000 7.438810 8.084219 -0.220827 2.293843 10.536061 9.420967 -14.021487 -2.225208 3.228822 -6.018050 -0.943738 55.408957 14.885935 7.445221 -3.062959 0.000000 0.000000 0.000000 
